<svg width="25" height="24" viewBox="0 0 25 24" fill="none" xmlns="http://www.w3.org/2000/svg">
<g clip-path="url(#clip0_1_82)">
<path fill-rule="evenodd" clip-rule="evenodd" d="M12.3333 2.25C8.90928 2.24925 5.7358 4.04466 3.97285 6.97997C2.2099 9.91527 2.11589 13.5602 3.72519 16.5825L2.66113 19.7747C2.48136 20.3137 2.62162 20.9081 3.02342 21.3099C3.42523 21.7117 4.01958 21.852 4.55863 21.6722L7.75081 20.6081C11.3327 22.5133 15.72 22.0013 18.7669 19.3225C21.8139 16.6438 22.8836 12.3582 21.453 8.56183C20.0224 4.76543 16.3903 2.25166 12.3333 2.25ZM12.3333 20.25C10.883 20.251 9.45809 19.8691 8.20269 19.1428C8.01676 19.035 7.7935 19.0121 7.58956 19.08L4.08331 20.25L5.25238 16.7437C5.32054 16.5399 5.29801 16.3167 5.1905 16.1306C3.32072 12.8979 3.85564 8.8124 6.49465 6.17005C9.13365 3.52772 13.2185 2.98763 16.4536 4.85333C19.6886 6.71903 21.2669 10.5252 20.3015 14.1327C19.3361 17.7402 16.0678 20.2494 12.3333 20.25Z" fill="#4F7A96"/>
</g>
<defs>
<clipPath id="clip0_1_82">
<rect width="24" height="24" fill="white" transform="translate(0.333313)"/>
</clipPath>
</defs>
</svg>
