<svg width="22" height="22" viewBox="0 0 22 22" fill="none" xmlns="http://www.w3.org/2000/svg">
<path fill-rule="evenodd" clip-rule="evenodd" d="M20.9779 0.68875C20.5938 0.304924 20.0323 0.158628 19.5098 0.30625H19.4957L1.50131 5.76625C0.901552 5.93873 0.471243 6.46454 0.420797 7.08657C0.370351 7.7086 0.710308 8.29688 1.27444 8.56375L9.30131 12.3653L13.1029 20.3922C13.3479 20.917 13.8755 21.2518 14.4548 21.25C14.4979 21.25 14.541 21.2481 14.5841 21.2444C15.2041 21.1942 15.7275 20.7639 15.8966 20.1653L21.3529 2.17094C21.3529 2.16625 21.3529 2.16156 21.3529 2.15688C21.5024 1.63569 21.359 1.07438 20.9779 0.68875ZM14.4632 19.7359L14.4585 19.7491L10.7685 11.9594L15.1973 7.52969C15.4774 7.23481 15.4715 6.77038 15.1838 6.48278C14.8962 6.19517 14.4318 6.18923 14.1369 6.46937L9.70725 10.8981L1.91663 7.20813H1.92975L19.9166 1.75L14.4632 19.7359Z" fill="#4F7A96"/>
</svg>
